<svg width="63" height="60" viewBox="0 0 63 60" fill="none" xmlns="http://www.w3.org/2000/svg">
<path d="M11.2862 40.5795C8.55625 42.0495 1.44626 45.4595 2.38626 49.0895C4.91626 53.2995 14.4562 54.6895 19.3162 55.3395C27.0862 56.2995 35.1163 56.2895 42.8863 55.3395C46.6063 54.9595 61.4562 52.5495 59.7662 47.4695C58.1162 44.1195 54.1063 42.3095 50.9163 40.5695C50.7963 40.5295 50.7363 40.3995 50.7963 40.2895C50.8363 40.1995 50.9363 40.1595 51.0263 40.1895C53.0063 40.7795 54.9662 41.4795 56.8162 42.4295C65.1962 46.6895 63.1763 52.4595 55.4063 55.7695C43.8763 60.4495 30.9363 60.7695 18.7463 59.0595C13.2563 58.2295 -3.36374 54.5595 0.606256 46.4195C2.98626 42.8395 7.29625 41.4495 11.1762 40.1895C11.4362 40.1195 11.5362 40.4895 11.2862 40.5695V40.5795Z" fill="#0033FF"/>
<path d="M23.8561 45.7098C22.8161 46.2798 21.3661 46.7198 20.7161 47.6598C20.7161 47.7098 20.786 47.6598 20.816 47.5098C20.866 47.4298 20.806 47.3498 20.836 47.2898C24.056 48.2798 27.7161 48.1498 31.1061 48.2098C34.4961 48.1598 38.1661 48.2798 41.3861 47.2898C41.4161 47.3598 41.3561 47.4298 41.4061 47.5098C41.4361 47.6598 41.506 47.7098 41.506 47.6598C40.836 46.7098 39.386 46.2698 38.336 45.6998C38.286 45.6798 38.266 45.6198 38.286 45.5698C38.896 45.4698 39.776 45.8598 40.426 45.9898C44.306 47.1998 42.0961 48.7998 39.4061 49.3598C33.3561 50.5198 26.6961 50.7598 20.8261 48.6898C18.5361 47.5998 20.1961 46.4198 21.7961 45.9898C22.4661 45.7898 23.1461 45.6398 23.8261 45.5098C23.8761 45.5098 23.9261 45.5398 23.9361 45.5898C23.9461 45.6498 23.9061 45.6898 23.8561 45.7098Z" fill="#0033FF"/>
<path d="M46.5859 50.5694C47.6059 49.8694 50.8559 47.8494 49.9859 46.5194C48.9959 45.3694 46.4459 44.7294 44.7759 44.3594C40.3259 43.4994 35.6659 43.1794 31.0959 43.2194C26.5259 43.1794 21.8659 43.4894 17.4159 44.3594C15.7459 44.7294 13.1759 45.3694 12.1959 46.5294C11.3259 47.8694 14.6059 49.8894 15.6059 50.5794C15.7959 50.6494 15.6759 50.9294 15.5059 50.8594C11.3259 49.5194 8.04586 46.3094 13.3459 43.4694C22.4859 39.2694 35.8559 39.4594 45.4559 42.0994C48.5959 42.9294 54.5059 45.9194 49.9559 49.2394C49.8359 49.4494 45.8859 51.5394 46.5859 50.5694Z" fill="#0033FF"/>
<path d="M40.4563 39.4591C40.4563 44.6291 36.2663 48.8191 31.0963 48.8191C25.9263 48.8191 21.7363 44.6291 21.7363 39.4591C21.7363 35.2191 28.0463 28.1991 30.3063 20.8191C30.5463 20.0291 31.6563 20.0291 31.8963 20.8191C34.1663 28.1691 40.4563 35.2191 40.4563 39.4591Z" fill="#0033FF" stroke="#0033FF" stroke-width="0.63" stroke-linecap="round" stroke-linejoin="round"/>
<path d="M31.0964 13.5296C32.6538 13.5296 33.9164 12.2671 33.9164 10.7096C33.9164 9.15221 32.6538 7.88965 31.0964 7.88965C29.5389 7.88965 28.2764 9.15221 28.2764 10.7096C28.2764 12.2671 29.5389 13.5296 31.0964 13.5296Z" fill="#0033FF" stroke="#0033FF" stroke-width="1.31" stroke-linecap="round" stroke-linejoin="round"/>
<path d="M31.0959 3.36961C31.9299 3.36961 32.6059 2.69356 32.6059 1.85961C32.6059 1.02566 31.9299 0.349609 31.0959 0.349609C30.262 0.349609 29.5859 1.02566 29.5859 1.85961C29.5859 2.69356 30.262 3.36961 31.0959 3.36961Z" fill="#0033FF" stroke="#0033FF" stroke-width="0.7" stroke-linecap="round" stroke-linejoin="round"/>
</svg>
