<svg width="21" height="37" viewBox="0 0 21 37" fill="none" xmlns="http://www.w3.org/2000/svg">
<path d="M13.4 2.90002H19.66" stroke="#0033FF" stroke-width="2" stroke-miterlimit="10" stroke-linecap="round"/>
<path d="M10.02 23.9V3.82C10.02 2.26 8.76 1 7.2 1C5.64 1 4.38 2.26 4.38 3.82V23.9C2.37 24.93 1 27.01 1 29.41C1 32.83 3.77 35.61 7.2 35.61C10.63 35.61 13.4 32.84 13.4 29.41C13.4 27 12.02 24.92 10.02 23.9Z" stroke="#0033FF" stroke-width="2" stroke-miterlimit="10"/>
<path d="M8.02 25.3V17.51C8.02 17.02 7.65 16.62 7.2 16.62C6.75 16.62 6.38 17.02 6.38 17.51V25.3C4.46 25.68 3 27.38 3 29.41C3 31.72 4.88 33.61 7.2 33.61C9.52 33.61 11.4 31.73 11.4 29.41C11.4 27.38 9.94 25.68 8.02 25.3Z" fill="#0033FF"/>
<path d="M13.4 6.20996H17.54" stroke="#0033FF" stroke-width="2" stroke-miterlimit="10" stroke-linecap="round"/>
<path d="M13.4 9.53003H19.66" stroke="#0033FF" stroke-width="2" stroke-miterlimit="10" stroke-linecap="round"/>
<path d="M13.4 12.84H15.34" stroke="#0033FF" stroke-width="2" stroke-miterlimit="10" stroke-linecap="round"/>
<path d="M13.4 16.15H18.13" stroke="#0033FF" stroke-width="2" stroke-miterlimit="10" stroke-linecap="round"/>
<path d="M13.4 19.47H16.53" stroke="#0033FF" stroke-width="2" stroke-miterlimit="10" stroke-linecap="round"/>
<path d="M13.4 22.78H19.66" stroke="#0033FF" stroke-width="2" stroke-miterlimit="10" stroke-linecap="round"/>
</svg>
