<svg width="21" height="37" viewBox="0 0 21 37" fill="none" xmlns="http://www.w3.org/2000/svg">
<path d="M10.02 23.9V3.82C10.02 2.26 8.76 1 7.2 1C5.64 1 4.38 2.26 4.38 3.82V23.9C2.37 24.93 1 27.01 1 29.41C1 32.83 3.77 35.61 7.2 35.61C10.63 35.61 13.4 32.84 13.4 29.41C13.4 27 12.02 24.92 10.02 23.9Z" stroke="#FF0000" stroke-width="2" stroke-miterlimit="10"/>
<path d="M7.2002 3.5C7.33675 3.50013 7.51936 3.63738 7.51953 3.88965V25.7109L7.92285 25.79C9.61451 26.1248 10.9004 27.6248 10.9004 29.4102C10.9003 31.4539 9.24391 33.1102 7.2002 33.1104C5.15716 33.1104 3.50008 31.4447 3.5 29.4102C3.5 27.6248 4.78588 26.1248 6.47754 25.79L6.87988 25.7109V3.88965C6.88005 3.63726 7.06362 3.5 7.2002 3.5Z" fill="#FF0000" stroke="#FF0000"/>
<path d="M13.4 3H19.66" stroke="#FF0000" stroke-width="2" stroke-miterlimit="10" stroke-linecap="round"/>
<path d="M13.4 6.32007H17.54" stroke="#FF0000" stroke-width="2" stroke-miterlimit="10" stroke-linecap="round"/>
<path d="M13.4 9.63H19.66" stroke="#FF0000" stroke-width="2" stroke-miterlimit="10" stroke-linecap="round"/>
<path d="M13.4 12.9401H15.34" stroke="#FF0000" stroke-width="2" stroke-miterlimit="10" stroke-linecap="round"/>
<path d="M13.4 16.26H18.13" stroke="#FF0000" stroke-width="2" stroke-miterlimit="10" stroke-linecap="round"/>
<path d="M13.4 19.5701H16.53" stroke="#FF0000" stroke-width="2" stroke-miterlimit="10" stroke-linecap="round"/>
<path d="M13.4 22.88H19.66" stroke="#FF0000" stroke-width="2" stroke-miterlimit="10" stroke-linecap="round"/>
</svg>
