<svg width="47" height="36" viewBox="0 0 47 36" fill="none" xmlns="http://www.w3.org/2000/svg">
<path d="M0 24.4137V11.9537C0 11.2537 0.57 10.6837 1.27 10.6837H11.84C12.18 10.6837 12.5 10.5537 12.74 10.3137L22.68 0.373704C23.48 -0.426296 24.85 0.143704 24.85 1.2737V34.4937C24.85 35.6237 23.48 36.1937 22.68 35.3937L13.53 26.2437C13.3 26.0137 12.98 25.8737 12.65 25.8737L1.25 25.6937C0.55 25.6837 0 25.1137 0 24.4237L0 24.4137Z" fill="#0033FF"/>
<path d="M34.67 31.7737C34.41 31.7737 34.14 31.7037 33.9 31.5637C33.19 31.1337 32.96 30.2137 33.39 29.5037C35.31 26.3137 36.33 22.6437 36.33 18.9037C36.33 15.1637 35.25 11.2737 33.2 8.00367C32.76 7.30367 32.97 6.37367 33.68 5.93367C34.38 5.49367 35.31 5.70367 35.75 6.41367C38.1 10.1637 39.33 14.4837 39.33 18.9037C39.33 23.3237 38.17 27.3937 35.96 31.0537C35.68 31.5237 35.18 31.7837 34.67 31.7837V31.7737Z" fill="#0033FF"/>
<path d="M40.35 35.7337C40.09 35.7337 39.82 35.6637 39.58 35.5237C38.87 35.0937 38.64 34.1737 39.07 33.4637C41.7 29.0937 43.09 24.0837 43.09 18.9637C43.09 13.8437 41.61 8.51371 38.81 4.04371C38.37 3.34371 38.58 2.41371 39.29 1.97371C39.99 1.53371 40.92 1.74371 41.36 2.45371C44.46 7.40371 46.1 13.1137 46.1 18.9637C46.1 24.8137 44.56 30.1737 41.65 35.0137C41.37 35.4837 40.87 35.7437 40.36 35.7437L40.35 35.7337Z" fill="#0033FF"/>
<path d="M29.85 26.9736C29.59 26.9736 29.32 26.9036 29.08 26.7636C28.37 26.3336 28.14 25.4136 28.57 24.7036C29.58 23.0336 30.11 21.1136 30.11 19.1536C30.11 17.1936 29.54 15.1536 28.47 13.4436C28.03 12.7436 28.24 11.8136 28.95 11.3736C29.65 10.9336 30.58 11.1436 31.02 11.8536C32.39 14.0436 33.11 16.5636 33.11 19.1536C33.11 21.7436 32.43 24.1136 31.14 26.2536C30.86 26.7236 30.36 26.9836 29.85 26.9836V26.9736Z" fill="#0033FF"/>
</svg>
