<svg width="48" height="37" viewBox="0 0 48 37" fill="none" xmlns="http://www.w3.org/2000/svg">
<path d="M46.09 36.0337C45.78 36.0337 45.46 35.9337 45.19 35.7337L1.70002 2.94369C1.04002 2.44369 0.910018 1.5037 1.41002 0.843695C1.91002 0.183695 2.85002 0.0536945 3.51002 0.553695L46.99 33.3437C47.65 33.8437 47.78 34.7837 47.28 35.4437C46.99 35.8337 46.54 36.0437 46.08 36.0437L46.09 36.0337Z" fill="#FF0000"/>
<path d="M24.86 13.2437V1.2737C24.86 0.143705 23.49 -0.426297 22.69 0.373703L16.28 6.7837L24.86 13.2537V13.2437Z" fill="#FF0000"/>
<path d="M14.14 8.91381L12.75 10.3038C12.51 10.5438 12.19 10.6738 11.85 10.6738H1.27C0.57 10.6738 0 11.2438 0 11.9438V24.4038C0 25.1038 0.56 25.6638 1.25 25.6738L12.65 25.8538C12.98 25.8538 13.3 25.9938 13.53 26.2238L22.68 35.3738C23.48 36.1738 24.85 35.6038 24.85 34.4738V16.9838L14.13 8.90381L14.14 8.91381Z" fill="#FF0000"/>
<path d="M29.87 17.0238L33.1 19.4538C33.1 19.3538 33.11 19.2538 33.11 19.1438C33.11 16.5538 32.39 14.0338 31.02 11.8438C30.58 11.1438 29.65 10.9338 28.95 11.3638C28.25 11.8038 28.03 12.7338 28.47 13.4338C29.16 14.5338 29.62 15.7538 29.87 17.0138V17.0238Z" fill="#FF0000"/>
<path d="M29.96 20.8538C29.74 22.2138 29.28 23.5238 28.57 24.7038C28.14 25.4138 28.37 26.3337 29.08 26.7637C29.32 26.9137 29.59 26.9737 29.85 26.9737C30.36 26.9737 30.85 26.7138 31.14 26.2438C31.78 25.1738 32.27 24.0337 32.61 22.8337L29.96 20.8438V20.8538Z" fill="#FF0000"/>
<path d="M36.33 18.9037C36.33 19.8537 36.26 20.8037 36.13 21.7437L38.82 23.7737C39.16 22.1837 39.33 20.5537 39.33 18.9037C39.33 14.4737 38.09 10.1537 35.75 6.41367C35.31 5.71367 34.38 5.50367 33.68 5.93367C32.98 6.37367 32.76 7.30367 33.2 8.00367C35.25 11.2737 36.33 15.0437 36.33 18.9037Z" fill="#FF0000"/>
<path d="M35.4 24.9536C34.91 26.5336 34.24 28.0636 33.38 29.4936C32.95 30.2036 33.18 31.1236 33.89 31.5536C34.13 31.7036 34.4 31.7636 34.66 31.7636C35.17 31.7636 35.66 31.5036 35.95 31.0336C36.75 29.7036 37.41 28.3036 37.93 26.8536L35.4 24.9436V24.9536Z" fill="#FF0000"/>
<path d="M43.09 18.9537C43.09 21.4337 42.76 23.8937 42.12 26.2637L44.67 28.1937C45.59 25.2137 46.08 22.1137 46.08 18.9637C46.08 13.1137 44.44 7.40371 41.34 2.45371C40.9 1.75371 39.97 1.54371 39.27 1.97371C38.57 2.41371 38.35 3.34371 38.79 4.04371C41.59 8.51371 43.07 13.6737 43.07 18.9637L43.09 18.9537Z" fill="#FF0000"/>
<path d="M41.1199 29.2637C40.5499 30.7137 39.8799 32.1137 39.0699 33.4537C38.6399 34.1637 38.8699 35.0837 39.5799 35.5137C39.8199 35.6637 40.0899 35.7237 40.3499 35.7237C40.8599 35.7237 41.3499 35.4637 41.6399 34.9937C42.3899 33.7537 43.0399 32.4537 43.6099 31.1337L41.1199 29.2537V29.2637Z" fill="#FF0000"/>
</svg>
