<svg width="24" height="25" viewBox="0 0 24 25" fill="none" xmlns="http://www.w3.org/2000/svg">
<path d="M6.94278 14.329C5.15345 10.5956 3.37176 6.85457 1.59007 3.11356C1.1695 2.16695 1.61301 1.05373 2.54591 0.652371C3.44822 0.25858 4.54171 0.652371 4.98522 1.55354C6.49163 4.97649 7.99803 8.39944 9.50444 11.8224C8.70918 10.0428 7.91392 8.25556 7.11101 6.47593C6.94278 5.66563 7.30983 4.85533 7.99803 4.48426C8.79329 4.0526 9.85619 4.31008 10.4068 5.12795C11.332 7.10448 12.2573 9.08857 13.1825 11.0651C12.4867 9.53537 11.7832 8.00565 11.0873 6.46835C10.835 5.5066 11.3855 4.53726 12.2649 4.26464C13.0372 4.02988 13.9166 4.37066 14.3525 5.1128C15.0789 6.7637 15.8054 8.41459 16.5318 10.0655L14.9566 6.4835C14.9566 5.69592 15.4154 4.99921 16.1036 4.71901C16.9371 4.37823 17.9541 4.71901 18.4664 5.55961C20.0722 8.95984 21.678 12.3601 23.2839 15.7603C24.0409 18.7516 22.7639 21.8943 20.164 23.4771C17.4188 25.1507 13.7943 24.7417 11.4467 22.4623C10.682 21.5308 9.5962 20.3949 8.09744 19.3347C5.6199 17.5854 3.18823 16.8659 1.64359 16.5403C0.909506 16.2071 0.450702 15.4952 0.504229 14.791C0.565403 13.8822 1.46007 13.0871 2.55355 13.1325L6.95043 14.3139L6.94278 14.329Z" fill="black" stroke="white" stroke-linecap="round" stroke-linejoin="round"/>
</svg>
