<svg width="32" height="33" viewBox="0 0 32 33" fill="none" xmlns="http://www.w3.org/2000/svg">
<path d="M8.92553 18.7612C6.58553 13.8312 4.25553 8.89121 1.92553 3.95121C1.37553 2.70121 1.95553 1.23121 3.17553 0.701205C4.35553 0.181205 5.78553 0.701205 6.36553 1.89121C8.33553 6.41121 10.3055 10.9312 12.2755 15.4512C11.2355 13.1012 10.1955 10.7412 9.14553 8.39121C8.92553 7.32121 9.40553 6.25121 10.3055 5.76121C11.3455 5.19121 12.7355 5.53121 13.4555 6.61121C14.6655 9.22121 15.8755 11.8412 17.0855 14.4512C16.1755 12.4312 15.2555 10.4112 14.3455 8.38121C14.0155 7.11121 14.7355 5.83121 15.8855 5.47121C16.8955 5.16121 18.0455 5.61121 18.6155 6.59121C19.5655 8.77121 20.5155 10.9512 21.4655 13.1312L19.4055 8.40121C19.4055 7.36121 20.0055 6.44121 20.9055 6.07121C21.9955 5.62121 23.3255 6.07121 23.9955 7.18121C26.0955 11.6712 28.1955 16.1612 30.2955 20.6512C31.2855 24.6012 29.6155 28.7512 26.2155 30.8412C22.6255 33.0512 17.8855 32.5112 14.8155 29.5012C13.8155 28.2712 12.3955 26.7712 10.4355 25.3712C7.19553 23.0612 4.01553 22.1112 1.99553 21.6812C1.03553 21.2412 0.43553 20.3012 0.50553 19.3712C0.58553 18.1712 1.75553 17.1212 3.18553 17.1812L8.93553 18.7412L8.92553 18.7612Z" fill="black" stroke="white" stroke-linecap="round" stroke-linejoin="round"/>
</svg>
