<svg width="570" height="635" viewBox="0 0 570 635" fill="none" xmlns="http://www.w3.org/2000/svg">
<path d="M558.01 254.99C552.13 249.18 540.89 242.95 531.61 239.13C524.07 236.03 519.52 235.22 518.75 231.84C517.56 226.61 526.13 218.49 535.04 215.13C543.17 212.06 548.15 214.25 553.04 209.56C556.73 206.02 557.49 201.31 557.75 199.7C559.6 188.27 551.13 174.53 538.89 170.56C530.39 167.8 522.81 170.64 519.6 171.85C507.63 176.34 496.31 188.15 494.74 201.42C493.77 209.59 496.98 214.24 493.03 220.28C489.44 225.76 483.32 227.26 481.89 227.57C476.13 228.8 468.63 227.41 467.75 224.14C467.33 222.6 468.49 221.04 470.32 218.57C474.03 213.56 476.81 213.56 477.61 210.86C478.81 206.76 473.91 201.79 471.18 199.72C465.54 195.44 459.04 195.85 456.96 196.07C459.45 195.49 467.45 193.31 472.04 186C478.56 175.62 473.49 162.34 467.33 155.14C466.84 154.57 456.38 142.7 444.19 145.28C438.82 146.42 435.64 149.83 430.44 155.57C421.54 165.39 421.74 170.3 411.62 184.28C403.81 195.07 399.17 198.4 394.05 198.85C393.57 198.89 388.08 199.32 386.76 196.71C385.07 193.36 391.25 187.08 397.47 180.85C407.15 171.17 409.85 171.19 416.76 163.71C423.58 156.32 428.24 151.27 428.33 144C428.46 133.18 418.37 125.88 416.76 124.71C415.27 123.63 403.82 115.35 393.62 120C385.08 123.89 381.16 135.15 381.19 143.14C381.21 149.49 383.72 152.86 381.19 156.85C378.53 161.06 372.76 162.04 370.48 162.42C367.41 162.94 362.73 163.73 359.89 161.13C358.93 160.25 357.47 158.34 358.05 145.7C358.53 135.21 359.67 133.69 358.05 131.13C354.79 125.96 346.11 125.67 342.62 125.56C338.4 125.42 334.96 126.19 332.76 126.85C333.78 125.58 335.48 123.66 337.9 121.71C343.06 117.56 346.14 117.6 349.04 114.85C353.24 110.86 353.29 104.57 353.33 100.71C353.44 87.2898 343.81 78.2598 343.04 77.5698C333.62 69.0098 317.53 65.2898 308.33 71.9998C303.24 75.7098 301.87 81.6598 299.33 93.4298C294.86 114.12 299.33 121.12 292.47 130.29C291.96 130.97 284.28 140.98 275.76 139.29C269.96 138.14 266.87 132.19 266.33 131.15C264.24 127.11 263.84 122.55 266.33 111.01C269.94 94.2898 272.48 82.4798 282.62 73.7198C284.86 71.7798 287.83 69.2198 292.48 67.7198C299.57 65.4298 302.89 68.0898 310.05 66.4298C311.84 66.0198 318.78 64.1998 323.76 58.2898C332.24 48.2398 328.28 34.4098 327.98 33.4298C327.13 30.6298 323.12 19.0298 313.05 16.2898C306.29 14.4498 300.43 17.5898 291.62 22.2898C282.87 26.9598 276.67 32.4498 272.76 36.4298C270.67 31.3898 267.31 24.3798 262.05 16.7198C255.27 6.84976 251.88 1.90977 245.76 0.429766C236.87 -1.72023 227.12 4.53976 222.19 11.5698C214.29 22.8298 216.35 39.5098 223.9 45.4298C227.18 47.9998 229.41 46.9098 235.9 50.9998C239.13 53.0398 243.69 55.9198 246.61 60.8598C251.17 68.5598 249.28 77.0998 247.47 85.2898C245.76 93.0198 243.87 101.56 239.33 102.43C238.04 102.68 234.43 102.71 221.76 83.9998C209.15 65.3898 208.32 58.8598 200.76 56.1398C193.35 53.4798 184.61 56.3098 179.33 60.8498C169.59 69.2398 169.68 85.1698 173.33 95.5598C180.24 115.26 198.77 111.85 221.76 136.27C228.55 143.48 248.07 164.22 243.62 186.41C243.38 187.59 239.65 204.96 226.48 209.12C216.25 212.35 206.25 205.75 202.91 203.55C186.52 192.74 181.82 173.77 175.48 146.55C168.2 115.32 167.77 87.8398 167.77 87.8398C167.5 70.6898 169.05 58.9998 162.2 43.6998C159.22 37.0398 154.62 27.1598 143.77 22.2698C132.27 17.0798 120.99 20.7798 117.2 22.2698C113.77 23.6198 102.83 27.9298 99.1998 38.1298C95.6298 48.1598 101.14 58.2298 105.63 66.4198C115.17 83.8198 124.55 84.3098 128.34 98.9898C129.03 101.66 132.21 113.93 125.77 119.99C122.1 123.44 116.84 123.43 114.63 123.42C106.16 123.39 99.6798 118.06 95.7698 114.85C90.2998 110.35 90.7198 108.66 86.7698 106.71C81.5798 104.14 74.3698 103.87 69.1998 106.71C58.9298 112.36 57.0198 130.15 62.7698 141.42C69.3598 154.33 85.7798 158.27 92.3398 159.85C105.03 162.9 110.48 160.02 118.48 165.42C125.66 170.27 127.53 176.9 130.69 182.99C137.14 195.38 148.06 201.86 169.9 214.81C204.47 235.31 215.81 232.08 241.04 250.27C252.69 258.67 261.07 267.15 266.33 272.98C264.23 272.93 261.18 273.2 258.62 275.12C254.67 278.07 255.48 282.2 252.19 283.69C248.84 285.21 243.49 282.95 241.48 279.4C239.97 276.74 241.37 275.18 241.05 269.54C240.86 266.29 240.53 260.45 237.19 256.68C233.19 252.17 226.4 252.33 223.48 252.39C213.76 252.61 203.44 258.48 198.62 268.25C197.53 270.47 193.14 279.35 196.91 286.68C200.51 293.7 207.63 291.59 214.05 297.82C226.51 309.93 218.47 336.17 217.48 339.39C215.76 345 212.33 355.67 202.05 364.25C198.05 367.59 188.08 375.9 174.19 374.54C164.32 373.57 152.91 367.76 148.48 357.4C147.71 355.6 145.61 350.05 148.91 335.11C154.66 309.08 168.83 290.63 169.91 289.25C177.13 280.04 182.94 275.69 188.77 263.54C193.37 253.95 193.3 249.26 192.63 245.97C191.05 238.28 184.73 231.51 176.77 229.26C167.92 226.75 156.85 229.76 154.91 235.26C153.74 238.58 156.53 241 154.91 245.97C154.13 248.35 152.04 252.24 149.34 252.4C145.36 252.63 141.08 244.74 139.91 237.83C138.99 232.39 140.7 231.65 139.48 227.12C139.27 226.32 136.7 217.32 128.34 214.26C123.18 212.37 118.5 213.73 116.77 214.26C108.24 216.86 101.54 225.13 100.06 234.4C98.4898 244.22 102.95 253.92 109.49 258.83C115.78 263.55 119.86 260.75 125.35 265.92C131.47 271.69 134.11 282.46 130.06 286.68C127.44 289.42 122.64 288.74 120.2 288.39C107.8 286.64 100.05 275.31 97.9098 272.1C90.1398 260.41 94.3698 256.08 87.1998 246.39C85.2698 243.78 76.1198 231.4 63.6298 232.68C53.2698 233.74 45.7298 243.68 43.4898 252.39C39.7498 266.94 50.2898 279.99 52.9198 283.25C67.8498 301.73 84.2298 294.51 100.92 314.11C108.39 322.89 116.03 337.17 111.63 342.82C110.3 344.53 108.26 344.96 106.06 345.39C99.4998 346.68 93.9498 344.75 79.0598 337.25C58.2698 326.78 55.8298 323.86 54.1998 320.81C51.8598 316.4 52.2898 313.69 49.0598 311.11C44.0498 307.13 35.4998 307.64 29.7698 311.11C20.4698 316.74 18.8998 330.02 21.1998 338.97C23.7698 348.94 31.4198 354.6 34.4898 356.54C38.9698 359.38 41.8498 359.51 57.1998 363.11C64.3598 364.79 70.1698 366.27 73.9098 367.25C71.8898 367.62 65.0198 369.14 60.0998 375.39C57.4198 378.8 56.3598 382.28 55.9098 384.39C54.5898 381.57 52.3598 377.6 48.6198 373.68C45.6398 370.55 40.1098 364.74 31.9098 363.39C18.7398 361.23 8.51977 372.15 7.90977 372.82C-1.47023 383.15 -2.37023 399.74 4.47977 409.68C10.6698 418.66 22.5698 421.31 35.7698 424.25C43.7498 426.03 44.2598 425.01 48.6298 426.82C59.6898 431.4 64.0398 441.08 70.4898 450.82C75.3698 458.19 83.3098 468.41 96.1998 479.11C93.6698 479.23 80.8598 480.08 74.7698 489.4C72.4798 492.91 71.7998 496.68 71.3398 498.83C69.6398 506.72 70.9498 513.37 71.9798 517.04C71.2698 514.99 70.1298 512.12 68.3398 508.9C66.4398 505.47 62.0198 497.51 54.6298 492.94C46.3098 487.8 32.1898 485.66 22.8098 492.94C13.1298 500.46 12.1698 514.57 14.1298 523.8C18.5898 544.73 40.2898 550.84 71.9698 574.05C84.4098 583.17 101.72 597.36 120.2 618.3C132.63 613.05 145.06 607.8 157.49 602.55C142.07 591.43 132.77 579.38 127.49 571.26C119.76 559.38 107.41 540.39 112.49 519.4C113.79 514.02 115.92 509.81 117.63 506.97C125.5 520.99 133.39 535.7 141.2 551.11C149.76 567.98 157.59 584.44 164.77 600.4C180.15 598.92 195.53 597.45 210.91 595.97C209.32 589.73 207.17 585.08 205.49 581.97C201.36 574.33 197.7 571.64 198.2 566.54C198.57 562.85 200.88 560.26 202.91 557.97C206.82 553.58 210.45 552.38 216.2 549.4C229.83 542.31 228.66 539.01 238.91 535.26C247.06 532.28 249.13 533.88 251.77 530.97C257.58 524.56 254.57 508.95 245.34 500.54C240.46 496.09 231.59 491.62 223.91 494.54C219.17 496.34 216.58 500.3 213.62 504.83C207.81 513.71 209.74 517.68 204.62 523.26C201.06 527.13 194.18 531.69 189.62 529.69C183.06 526.81 183.61 511.36 186.19 501.83C187.13 498.36 190 488.32 199.05 481.26C204.58 476.95 206.57 478.3 222.62 471.83C233.38 467.49 238.76 465.33 242.33 461.97C245.36 459.13 244.48 458.87 256.04 443.11C259.9 437.85 262.56 434.39 267.18 433.25C270.61 432.41 273.72 433.18 275.75 433.68C283.39 435.57 283.91 439.58 288.61 439.68C295.42 439.82 300.79 431.53 301.9 429.82C303.96 426.64 304.88 423.62 305.33 421.68C317.33 446 324.89 467.47 329.76 483.82C338.99 514.84 339.18 529.77 337.9 541.25C336.82 550.98 334.61 558.92 332.76 564.39C322.5 551.8 314.98 541.22 310.05 533.96C303.21 523.89 301.22 520.01 295.91 518.1C284.68 514.07 271.07 523.34 264.2 530.96C261.18 534.3 251.37 545.17 253.91 558.82C256.41 572.2 269.5 581.37 280.48 583.25C290.03 584.89 292.81 580.13 302.34 583.25C303.57 583.65 316.75 588.17 319.05 599.11C319.88 603.03 318.98 606.24 318.19 608.97C315.17 619.39 307.21 625.59 303.19 628.26L379.48 634.26C380.67 617.43 379.96 604.11 379.05 594.83C378.13 585.43 376.79 578.17 380.34 569.54C384.06 560.49 390.92 555.34 393.2 553.68C408.34 542.62 428.25 544.4 450.63 546.39C457.43 547 468.01 548.31 482.77 547.25C495.48 546.34 498.35 544.6 499.91 543.39C510 535.6 509.71 516 502.91 502.68C502.23 501.34 492.82 483.48 478.91 483.39C474.62 483.36 473.24 485.05 453.62 498.39C439.04 508.3 434.52 510.96 427.91 512.96C422.54 514.59 416.74 516.34 409.48 515.1C394.2 512.49 386.1 498.93 385.05 497.1C378.47 485.69 378.05 470.94 384.62 459.39C385.93 457.09 389.91 450.28 397.91 446.1C406.12 441.81 410.98 444.26 427.05 442.67C440.46 441.35 447.17 440.68 452.34 436.67C461.77 429.34 467.06 412.94 460.48 400.24C454.8 389.27 443 386.33 438.62 385.24C428.59 382.74 412.87 383.21 406.05 392.1C403.11 395.93 403.48 399.15 398.76 403.24C397.86 404.02 391.49 409.54 385.9 407.53C383.34 406.61 381.76 404.39 381.19 403.24C375.5 391.88 407.37 363.91 426.19 350.1C441.25 339.05 449.09 336.23 457.05 336.81C464.65 337.37 466.05 340.56 476.76 342.38C485.57 343.87 498.6 346.08 507.62 338.09C514.58 331.92 516.72 321.84 515.33 313.66C513.55 303.17 506.2 297.24 504.19 295.66C493.5 287.3 478.5 287.28 468.19 291.8C459.5 295.61 459.83 300.17 451.05 302.51C442.99 304.66 431.51 303.82 427.91 297.37C425.36 292.81 427.66 287.08 428.34 285.37C435.02 268.68 460.25 262.02 477.2 261.37C481.68 261.2 513.85 260.37 521.34 276.37C524.25 282.58 521.52 287.22 526.48 296.08C528.23 299.21 532.45 306.74 540.62 309.1C549.24 311.59 559.01 307.38 564.19 301.23C574.44 289.04 569.31 266.09 558.02 254.94L558.01 254.99ZM131.43 452.78C130.69 455.92 128.95 460.47 126.93 460.49C125.6 460.5 123.39 458.56 123.39 458.56C123.39 458.56 99.9798 432.79 97.9998 412.6C97.4098 406.6 98.8698 402.69 99.6098 401.03C101.61 396.51 104.81 393.73 106.68 392.35C116.62 405.63 122.94 417.61 126.93 426.42C129.25 431.54 133.88 442.42 131.43 452.77V452.78ZM216.93 436.06C213.72 443.05 204.26 444.32 201.18 444.74C199.7 444.94 184.86 446.76 180.61 438.31C177.54 432.2 182 424.72 182.54 423.85C184.29 421 186.13 419.85 194.75 413.89C199.47 410.63 203.2 408.01 205.36 406.5C207.84 408.92 211.36 412.93 214.04 418.71C216.65 424.34 219.5 430.48 216.93 436.07V436.06ZM271.9 398.13C262.48 401.28 258.31 402.92 252.94 401.67C252.05 401.46 247.38 400.3 247.15 398.13C246.96 396.29 250.19 395.64 252.29 392.34C254.42 389.01 254.99 383.62 252.61 380.5C250.42 377.63 246.37 377.49 238.47 377.23C234.71 377.11 231.59 377.33 229.47 377.55C231.91 375.74 235.13 372.94 238.15 368.87C240.91 365.15 242.58 361.6 243.61 358.91C245.9 363.45 249.27 368.91 254.22 374.34C265.15 386.35 277.78 391.63 284.85 393.95C279.23 395.7 274.76 397.17 271.9 398.13ZM327.98 377.88C327.23 378.81 324.92 381.66 321.4 382.06C315.61 382.71 310.71 376.22 307.9 372.42C301.1 363.2 303.33 359.31 297.61 349.6C294.21 343.81 289.58 335.95 280.57 333.21C269.41 329.81 258.63 336.45 257.15 337.39C254.66 338.97 252.84 340.65 251.64 341.89C251.6 339.55 251.57 336.23 251.64 332.25C251.82 321.43 252.44 319.9 253.57 318.75C256.57 315.7 262.3 316.17 265.46 317.14C268.54 318.08 268.85 319.4 272.85 320.84C275.51 321.8 278.99 322.52 281.21 322.28C287.03 321.65 292.35 313.52 294.39 302.67C300.2 310.09 305.03 316.3 308.53 320.83C323.34 339.96 327.33 345.47 329.74 354.42C330.99 359.04 333.93 370.52 327.96 377.88H327.98ZM346.58 228.31C345.89 233.23 344.34 243.49 336.72 253.17C332.92 258 326.1 266.67 317.01 265.94C309.82 265.37 305.17 259.23 304.15 257.88C299.28 251.45 299.13 244.07 299.44 235.17C300.17 214.22 300.7 198.99 308.01 177.31C311.23 167.76 314.66 160.25 317.01 155.45C319.71 159.47 323.52 165.2 327.98 172.16C336.75 185.85 341.17 192.8 343.15 198.3C344.65 202.45 348.6 213.81 346.58 228.3V228.31ZM407.01 239.88C402.46 247.05 399.64 248.53 395.01 254.45C389.83 261.07 382.65 270.25 382.58 281.45C382.54 287.99 384.97 288.4 387.21 304.59C388.06 310.77 388.13 313.74 387.01 317.12C385.31 322.27 380.63 329.12 374.87 329.01C369.46 328.91 365.73 322.72 364.58 320.82C356.63 307.63 362.55 290.68 364.58 284.87C369.7 270.22 378.23 260.95 391.58 246.73C400.29 237.45 408.21 230.44 413.87 225.73C412.63 229.25 410.53 234.32 407.01 239.87V239.88Z" fill="#0033FF"/>
</svg>
